<?xml version="1.0" encoding="UTF-8"?>
<svg width="64px" height="64px" viewBox="0 0 64 64" xmlns="http://www.w3.org/2000/svg">
  <rect width="64" height="64" fill="#ED7100"/>
  <!-- Three running containers -->
  <rect x="8" y="20" width="14" height="24" rx="2" fill="#FFFFFF"/>
  <rect x="25" y="20" width="14" height="24" rx="2" fill="#FFFFFF"/>
  <rect x="42" y="20" width="14" height="24" rx="2" fill="#FFFFFF"/>
  <!-- Container details -->
  <rect x="11" y="24" width="8" height="2" rx="1" fill="#ED7100"/>
  <rect x="11" y="28" width="6" height="2" rx="1" fill="#ED7100"/>
  <rect x="11" y="32" width="8" height="2" rx="1" fill="#ED7100"/>
  <rect x="28" y="24" width="8" height="2" rx="1" fill="#ED7100"/>
  <rect x="28" y="28" width="6" height="2" rx="1" fill="#ED7100"/>
  <rect x="28" y="32" width="8" height="2" rx="1" fill="#ED7100"/>
  <rect x="45" y="24" width="8" height="2" rx="1" fill="#ED7100"/>
  <rect x="45" y="28" width="6" height="2" rx="1" fill="#ED7100"/>
  <rect x="45" y="32" width="8" height="2" rx="1" fill="#ED7100"/>
</svg>
